<?xml version="1.0" encoding="utf-8"?>
<!-- Generator: Adobe Illustrator 25.1.0, SVG Export Plug-In . SVG Version: 6.00 Build 0)  -->
<svg version="1.1" id="Camada_1" xmlns="http://www.w3.org/2000/svg" xmlns:xlink="http://www.w3.org/1999/xlink" x="0px" y="0px"
	 viewBox="0 0 157 41.5" style="enable-background:new 0 0 157 41.5;" xml:space="preserve">
<style type="text/css">
	.st0{fill-rule:evenodd;clip-rule:evenodd;fill:#FFFFFF;}
</style>
<g transform="translate(-58.174 -4437.888)">
	<path class="st0" d="M62,4442.7h3.8v2.1c0,2.1-1.7,3.7-3.7,3.7c0,0,0,0-0.1,0c-1.4,0-2.6-0.7-3.3-1.9c-0.3-0.6-0.5-0.9-0.5-3.4
		s0.1-2.8,0.5-3.4c0.7-1.2,2-1.9,3.3-1.9c1.8,0,3.4,1.3,3.7,3.1H64c-0.3-0.9-1.1-1.5-2-1.5c-0.6,0-1.2,0.3-1.6,0.8
		c-0.4,0.5-0.5,0.8-0.5,3s0.1,2.4,0.5,3c0.4,0.5,1,0.8,1.6,0.8c1.2,0,2.2-0.9,2.2-2.1c0,0,0-0.1,0-0.1v-0.5H62L62,4442.7z"/>
	<path class="st0" d="M67.2,4438h4.2c0.8,0,1.6,0.2,2.2,0.7c0.7,0.6,1.1,1.4,1.1,2.2c0,1.3-0.8,2.5-2.1,2.9l2.5,4.6h-1.9l-2.2-4.5
		h-2.1v4.5h-1.6V4438z M68.8,4442.6h2.4c0.9,0.1,1.7-0.6,1.8-1.5c0-0.1,0-0.1,0-0.2c0-0.5-0.2-0.9-0.5-1.2c-0.3-0.2-0.8-0.4-1.2-0.3
		h-2.5V4442.6z"/>
	<path class="st0" d="M76.2,4438h1.6v6.8c0,1.2,0.9,2.2,2.1,2.2c1.2,0,2.2-0.9,2.2-2.1c0,0,0-0.1,0-0.1v-6.8h1.6v6.9
		c-0.1,2.1-1.9,3.7-3.9,3.6c-2-0.1-3.5-1.7-3.6-3.6L76.2,4438z"/>
	<path class="st0" d="M85.2,4438H89c0.9-0.1,1.7,0.2,2.4,0.7c0.8,0.6,1.2,1.5,1.2,2.5c0,1.8-1.5,3.2-3.2,3.2c0,0-0.1,0-0.1,0h-2.5
		v4.1h-1.6V4438z M86.8,4442.9h2.4c0.9,0.1,1.7-0.6,1.8-1.6c0,0,0-0.1,0-0.1c0-0.6-0.2-1.1-0.7-1.4c-0.3-0.2-0.7-0.3-1.2-0.3h-2.3
		L86.8,4442.9z"/>
	<path class="st0" d="M93.6,4439.8c1.1-1.8,3.5-2.4,5.4-1.3c0.5,0.3,1,0.8,1.3,1.3c0.3,0.6,0.5,0.9,0.5,3.4s-0.1,2.8-0.5,3.4
		c-1.1,1.8-3.5,2.4-5.4,1.3c-0.5-0.3-1-0.8-1.3-1.3c-0.3-0.6-0.5-0.9-0.5-3.4S93.3,4440.4,93.6,4439.8z M95.3,4446.2L95.3,4446.2
		c0.8,0.9,2.1,1,3,0.3c0.1-0.1,0.2-0.2,0.3-0.3c0.4-0.5,0.5-0.8,0.5-3s-0.1-2.4-0.5-3c-0.8-0.9-2.1-1-3-0.3
		c-0.1,0.1-0.2,0.2-0.3,0.3c-0.4,0.5-0.5,0.8-0.5,3S94.9,4445.7,95.3,4446.2z"/>
	<path class="st0" d="M74.4,4478.8c0,0.3-0.2,0.4-0.5,0.4h-6.2c-0.3,0-0.5-0.1-0.5-0.4v-21.6c0-0.3-0.2-0.4-0.5-0.4h-8
		c-0.3,0-0.5-0.1-0.5-0.4v-4.2c0-0.3,0.2-0.4,0.5-0.4h24.2c0.3,0,0.5,0.1,0.5,0.4v4.2c0,0.3-0.2,0.4-0.5,0.4h-8
		c-0.3,0-0.5,0.1-0.5,0.4V4478.8z"/>
	<path class="st0" d="M152.6,4478.8c0,0.3-0.2,0.4-0.5,0.4H146c-0.3,0-0.5-0.1-0.5-0.4v-21.6c0-0.3-0.2-0.4-0.5-0.4h-8
		c-0.3,0-0.5-0.1-0.5-0.4v-4.2c0-0.3,0.2-0.4,0.5-0.4h24.2c0.3,0,0.5,0.1,0.5,0.4v4.2c0,0.3-0.2,0.4-0.5,0.4h-8
		c-0.3,0-0.5,0.1-0.5,0.4L152.6,4478.8z"/>
	<path class="st0" d="M215.1,4463.8c0-8.7-3.1-11.9-11.9-11.9h-6.2c-8.8,0-11.9,3.2-11.9,11.9c0,0.5,0,1.7,0,3.7
		c0,8.7,3.2,11.8,11.9,11.8l3.3,0l2.8,0c8.7,0,11.9-3.1,11.9-11.8C215.2,4465.5,215.1,4464.4,215.1,4463.8z M208.1,4468.1
		L208.1,4468.1c0,5-1.2,6.2-6.2,6.2h-3.4c-5,0-6.2-1.2-6.2-6.2v-5c0-5,1.2-6.2,6.2-6.2h3.4c5,0,6.2,1.2,6.2,6.2V4468.1z"/>
	<path class="st0" d="M126.7,4457h7.9c0.3,0,0.6-0.3,0.6-0.6v-3.8c0-0.3-0.3-0.6-0.6-0.6h-9.3c-8.8,0-11.9,3.2-11.9,11.9
		c0,0.5,0,1.7,0,3.7c0,8.7,3.2,11.8,11.9,11.8l3.3,0h6c0.3,0,0.6-0.3,0.6-0.6v-3.8c0-0.3-0.3-0.6-0.6-0.6h-7.9c-5,0-6.2-1.2-6.2-6.2
		v-5C120.5,4458.2,121.6,4457,126.7,4457z"/>
	<path class="st0" d="M112.5,4463.8c0-8.7-3.1-11.9-11.9-11.9h-6.2c-8.8,0-11.9,3.2-11.9,11.9c0,0.5,0,1.7,0,3.7
		c0,8.7,3.2,11.8,11.9,11.8l3.3,0l2.8,0c8.7,0,11.9-3.1,11.9-11.8C112.5,4465.5,112.5,4464.4,112.5,4463.8L112.5,4463.8z
		 M105.4,4468.1L105.4,4468.1c0,5-1.2,6.2-6.2,6.2h-3.4c-5,0-6.2-1.2-6.2-6.2v-5c0-5,1.2-6.2,6.2-6.2h3.4c5,0,6.2,1.2,6.2,6.2
		L105.4,4468.1z"/>
	<path class="st0" d="M176.8,4452.3c-0.1-0.2-0.2-0.3-0.5-0.3h-9.9c-0.2,0-0.4,0.2-0.4,0.3l-10.6,26.6c0,0-0.2,0.3,0.2,0.3h6.7
		c0.2,0,0.3-0.3,0.3-0.3l2.6-6.5c0,0,0.2-0.4,0.4-0.4h11.5c0.3,0,0.4,0.4,0.4,0.4l2.6,6.5c0,0,0.1,0.3,0.3,0.3h6.7
		c0.3,0,0.2-0.4,0.2-0.4L176.8,4452.3L176.8,4452.3z M167.4,4466.4L167.4,4466.4l3.9-9.6l4,9.7c0,0,0.2,0.4-0.1,0.4h-7.7
		C167.3,4466.7,167.4,4466.4,167.4,4466.4z"/>
</g>
</svg>
